<svg width="524" height="493" viewBox="0 0 524 493" fill="none" xmlns="http://www.w3.org/2000/svg">
<path d="M246.347 214.196C243.708 208.366 244.701 202.261 248.565 200.562C252.429 198.863 257.7 202.212 260.339 208.045C261.427 210.361 261.921 212.905 261.78 215.467L272.638 240.314L260.392 245.23L250.988 220.213C248.96 218.605 247.369 216.541 246.347 214.196Z" fill="#FFAFAF"/>
<path d="M321.387 224.746C328.007 230.988 327.592 241.638 320.507 247.347L285.812 275.302C282.025 278.353 276.405 277.275 274.016 273.039C264.898 258.278 263.18 257.468 257.88 242.339L272.825 237.112L281.251 247.663L299.648 225.961C305.207 219.402 315.131 218.847 321.387 224.746Z" fill="#6C63FF"/>
<path d="M187.429 187V176H78.4292V187H187.429Z" fill="#282D34"/>
<path d="M463.429 187V176H354.429V187H463.429Z" fill="#282D34"/>
<path d="M138.811 138.008H120.176C112.948 138.008 107.09 143.867 107.09 151.094V219.914C107.09 227.141 112.948 233 120.176 233H138.811C146.038 233 151.897 227.141 151.897 219.914V151.094C151.897 143.867 146.038 138.008 138.811 138.008Z" fill="#3F3D56"/>
<path d="M432.75 138.008H414.114C406.887 138.008 401.028 143.867 401.028 151.094V219.914C401.028 227.141 406.887 233 414.114 233H432.75C439.977 233 445.836 227.141 445.836 219.914V151.094C445.836 143.867 439.977 138.008 432.75 138.008Z" fill="#3F3D56"/>
<path d="M420.938 209.7H136.338C126.444 209.7 117.977 202.634 116.207 192.9L105.323 133.039C100.59 107.005 110.397 80.4823 130.923 63.7923L152.384 17.6185C157.359 6.91543 168.199 0 180.002 0H340.318C348.841 0 357.029 3.60562 362.784 9.8927L402.219 52.979C431.069 72.4204 447.437 106.045 444.94 140.747L441.346 190.707C440.58 201.357 431.616 209.7 420.938 209.7Z" fill="#282D34"/>
<path d="M372.367 59.5942H157.348C153.614 59.5942 150.168 57.7258 148.13 54.5971C146.093 51.4676 145.778 47.56 147.288 44.1452L158.622 18.5217C160.347 14.622 164.216 12.0517 168.478 11.9738L351.775 12.197C355.265 12.1742 358.598 13.7451 360.714 16.5097L381.102 41.9101C383.664 45.2584 384.096 49.6858 382.229 53.4664C380.362 57.2462 376.583 59.5942 372.367 59.5942Z" fill="white"/>
<path d="M404.613 127.254C415.006 127.254 423.432 118.828 423.432 108.435C423.432 98.041 415.006 89.6154 404.613 89.6154C394.219 89.6154 385.793 98.041 385.793 108.435C385.793 118.828 394.219 127.254 404.613 127.254Z" fill="white"/>
<path d="M157.274 127.254C167.668 127.254 176.093 118.828 176.093 108.435C176.093 98.041 167.668 89.6154 157.274 89.6154C146.881 89.6154 138.455 98.041 138.455 108.435C138.455 118.828 146.881 127.254 157.274 127.254Z" fill="white"/>
<path d="M386.241 178.783H181.022V178.335C181.022 167.71 189.665 159.067 200.29 159.067H366.974C377.598 159.067 386.241 167.71 386.241 178.335V178.783Z" fill="#3F3D56"/>
<path d="M133.939 67.7392C132.829 67.7392 131.716 67.3857 130.782 66.6715L123.268 60.927C122.522 60.3564 121.593 60.0423 120.654 60.0423H104.245C102.367 60.0423 100.685 59.0726 99.7444 57.4474C98.8039 55.8232 98.8004 53.8812 99.735 52.2534L103.741 45.275C104.541 43.8809 105.97 42.9217 107.563 42.709L128.093 39.9716C130.652 39.632 133.034 41.1784 133.766 43.6498L138.926 61.0636C139.494 62.981 138.898 65.0814 137.408 66.416C136.426 67.2946 135.184 67.7392 133.939 67.7392Z" fill="#282D34"/>
<path d="M400.167 64.1546C398.922 64.1546 397.68 63.7101 396.698 62.8314C395.208 61.4968 394.612 59.3964 395.18 57.479L400.34 40.0652C401.072 37.5921 403.458 36.0404 406.013 36.3879L426.543 39.1245C428.136 39.3371 429.565 40.2963 430.365 41.6904L434.371 48.6688C435.306 50.2966 435.302 52.2386 434.362 53.8629C433.421 55.488 431.739 56.4577 429.861 56.4577H413.452C412.513 56.4577 411.584 56.7719 410.838 57.3425L403.324 63.087C402.39 63.8011 401.277 64.1546 400.167 64.1546Z" fill="#282D34"/>
<path d="M89.4292 34H78.4292V485H89.4292V34Z" fill="#282D34"/>
<path d="M469.429 34H458.429V485H469.429V34Z" fill="#282D34"/>
<path d="M0 485.439C0 485.781 0.27531 486.057 0.61815 486.057H522.43C522.773 486.057 523.048 485.781 523.048 485.439C523.048 485.096 522.773 484.821 522.43 484.821H0.61815C0.27531 484.821 0 485.096 0 485.439Z" fill="#3F3D56"/>
<path d="M344.54 451.323V471.752L359.986 472.25L359.342 451.323H344.54Z" fill="#FFAFAF"/>
<path d="M341.484 462.69C341.275 462.69 341.071 462.717 340.872 462.774C338.085 463.57 321.949 477.976 317.07 482.372C316.467 482.915 316.147 483.691 316.191 484.5C316.235 485.306 316.636 486.038 317.291 486.509C320.991 489.174 328.571 493.389 337.769 491.686C341.999 490.902 346.269 490.409 350.036 489.975C358.101 489.043 364.47 488.308 364.47 485.453C364.47 480.61 363.138 467.844 361.466 467.307C361.314 467.261 361.139 467.378 360.936 467.662C358.378 471.242 349.592 469.337 349.22 469.255L349.122 469.233L349.066 469.15C349.021 469.081 344.719 462.69 341.484 462.69Z" fill="#2F2E41"/>
<path d="M315.642 451.323V471.752L331.088 472.25L330.444 451.323H315.642Z" fill="#FFAFAF"/>
<path d="M309.414 305.088L301.193 311.316L299.698 381.569L313.649 458.299L331.835 459.046L332.333 385.804L355.751 319.039L351.018 303.344L309.414 305.088Z" fill="#2F2E41"/>
<path d="M347.779 317.046L355.751 319.039L361.481 458.299L340.803 456.555L327.102 358.151L347.779 317.046Z" fill="#2F2E41"/>
<path d="M304.614 492.574C297.527 492.574 291.768 489.441 288.692 487.329C287.763 486.691 287.187 485.678 287.114 484.549C287.04 483.411 287.483 482.321 288.331 481.558C295.965 474.691 309.171 463.056 311.837 462.295C315.292 461.305 319.929 467.912 320.525 468.788C321.491 468.986 329.4 470.497 331.632 467.372C332.058 466.776 332.457 466.749 332.72 466.833C335.105 467.597 336.07 482.952 336.07 485.453C336.07 488.752 329.831 489.472 321.195 490.469C317.436 490.903 313.175 491.395 308.961 492.175C307.467 492.452 306.015 492.574 304.614 492.574Z" fill="#2F2E41"/>
<path d="M326.497 214.094L332.172 225.527L310.723 235.886L310.985 217.558L326.497 214.094Z" fill="#FFAFAF"/>
<path d="M310.799 222.743C321.459 222.743 330.1 214.102 330.1 203.443C330.1 192.784 321.459 184.143 310.799 184.143C300.14 184.143 291.499 192.784 291.499 203.443C291.499 214.102 300.14 222.743 310.799 222.743Z" fill="#FFAFAF"/>
<path d="M310.669 231.429L330.459 219.735C344.973 229.914 357.06 232.296 357.444 250.019L354.769 292.297L354.926 310.505C354.992 318.149 348.814 324.381 341.17 324.381H312.911C305.433 324.381 299.861 317.481 301.436 310.171L306.771 285.401L301.074 237.126L310.669 231.429Z" fill="#6C63FF"/>
<path d="M330.647 213.154L327.078 215.71C327.078 215.71 326.028 204.568 324.579 204.074C323.131 203.579 321.176 206.147 321.176 206.147L319.748 210.33L315.028 208.363C315.028 208.363 309.563 205.419 307.631 204.76C305.699 204.1 305.992 198.503 305.992 198.503C305.992 198.503 282.802 201.678 286.286 188.309C286.286 188.309 287.486 178.474 290.054 180.429C292.622 182.384 292.657 177.543 292.657 177.543L298.475 176.294C298.475 176.294 306.459 165.539 322.207 174.688C337.956 183.837 330.647 213.154 330.647 213.154Z" fill="#2F2E41"/>
<path d="M290.368 255.875L285.154 255.08C283.698 254.858 282.689 253.486 282.91 252.03L283.548 247.847C281.655 249.017 280.266 250.974 279.905 253.346C279.348 257.004 281.415 260.45 284.696 261.792L280.133 291.737C280.122 291.812 280.125 291.886 280.122 291.96C276.581 292.254 273.57 294.932 273.011 298.599C272.683 300.748 273.261 302.826 274.457 304.447L275.031 300.68C275.253 299.224 276.626 298.215 278.082 298.436L283.295 299.231C284.751 299.453 285.761 300.825 285.539 302.281L284.902 306.464C286.794 305.294 288.183 303.337 288.544 300.965C289.103 297.299 287.026 293.845 283.733 292.51C283.753 292.438 283.777 292.369 283.788 292.294L288.35 262.349C291.882 262.045 294.881 259.371 295.439 255.712C295.766 253.563 295.189 251.485 293.992 249.863L293.418 253.631C293.197 255.087 291.824 256.096 290.368 255.875Z" fill="#3F3D56"/>
<path d="M280.657 281.93C274.4 280.582 270.084 276.153 271.017 272.036C271.95 267.919 277.778 265.675 284.036 267.024C286.544 267.527 288.884 268.644 290.859 270.28L317.291 276.334L313.957 289.102L288.254 281.778C285.755 282.452 283.149 282.504 280.657 281.93Z" fill="#FFAFAF"/>
<path d="M333.778 227.889C342.734 226.281 351.048 232.95 351.421 242.041L353.251 286.56C353.45 291.419 349.241 295.295 344.415 294.695C327.126 293.243 328.34 295.013 313.027 290.273L314.053 274L328.322 273.784L321.822 246.086C319.857 237.715 325.315 229.408 333.778 227.889Z" fill="#6C63FF"/>
</svg>
